# Aspose.3D Wavefront OBJ Exporter
# Copyright 2004-2025 Aspose Pty Ltd.
# File created: 04/17/2025 07:31:15

mtllib material.lib
g Cardboard Box 

#
# object Cardboard Box 
#

v -18.48979 -8.082144E-07 18.48979
v -18.48979 8.082144E-07 -18.48979
v 18.48979 8.082144E-07 -18.48979
v 18.48979 -8.082144E-07 18.48979
v -18.48979 38.10819 18.489792
v 18.48979 38.10819 18.489792
v 18.48979 38.10819 -18.489788
v -18.48979 38.10819 -18.489788
v -18.48979 0.56430286 19.054094
v 18.48979 0.56430286 19.054094
v 18.48979 37.54388 19.054096
v -18.48979 37.54388 19.054096
v 19.054094 0.5643029 18.48979
v 19.054094 0.56430453 -18.48979
v 19.054094 37.543884 -18.489788
v 19.054094 37.54388 18.489792
v 18.48979 0.56430453 -19.054094
v -18.48979 0.56430453 -19.054094
v -18.48979 37.543884 -19.054092
v 18.48979 37.543884 -19.054092
v -19.054094 0.56430453 -18.48979
v -19.054094 0.5643029 18.48979
v -19.054094 37.54388 18.489792
v -19.054094 37.543884 -18.489788
# 24 vertices

vn -0.341586 -0.87557864 -0.34158602
vn 0.341586 -0.87557864 -0.34158602
vn 0.341586 -0.87557864 0.34158596
vn -0.341586 -0.87557864 0.34158596
vn 0.34158662 0.8755782 0.34158665
vn 0.34158662 0.8755782 -0.3415866
vn -0.34158662 0.8755782 -0.3415866
vn -0.34158662 0.8755782 0.34158665
vn 0.34158596 -0.34158596 0.87557876
vn 0.3415861 0.34158525 0.875579
vn -0.34158608 0.34158525 0.875579
vn -0.34158596 -0.34158596 0.87557876
vn 0.87557876 -0.3415859 -0.341586
vn 0.875579 0.3415853 -0.34158608
vn 0.875579 0.34158525 0.34158614
vn 0.87557876 -0.34158596 0.34158593
vn -0.34158596 -0.3415859 -0.87557876
vn -0.3415861 0.3415853 -0.875579
vn 0.3415861 0.3415853 -0.875579
vn 0.34158596 -0.3415859 -0.87557876
vn -0.8755787 -0.341586 0.34158596
vn -0.8755789 0.34158525 0.34158614
vn -0.875579 0.3415853 -0.34158608
vn -0.87557876 -0.3415859 -0.341586
vn -0.341586 -0.87557864 0.34158596
vn -0.34158596 -0.34158596 0.87557876
vn -0.8755787 -0.341586 0.34158596
vn -0.341586 -0.87557864 -0.34158602
vn -0.87557876 -0.3415859 -0.341586
vn -0.34158596 -0.3415859 -0.87557876
vn 0.341586 -0.87557864 -0.34158602
vn 0.34158596 -0.3415859 -0.87557876
vn 0.87557876 -0.3415859 -0.341586
vn 0.341586 -0.87557864 0.34158596
vn 0.87557876 -0.34158596 0.34158593
vn 0.34158596 -0.34158596 0.87557876
vn -0.34158662 0.8755782 0.34158665
vn -0.8755789 0.34158525 0.34158614
vn -0.34158608 0.34158525 0.875579
vn 0.34158662 0.8755782 0.34158665
vn 0.3415861 0.34158525 0.875579
vn 0.875579 0.34158525 0.34158614
vn 0.34158662 0.8755782 -0.3415866
vn 0.875579 0.3415853 -0.34158608
vn 0.3415861 0.3415853 -0.875579
vn -0.34158662 0.8755782 -0.3415866
vn -0.3415861 0.3415853 -0.875579
vn -0.875579 0.3415853 -0.34158608
vn -0.341586 -0.87557864 -0.34158602
vn -0.341586 -0.87557864 0.34158596
vn -0.8755787 -0.341586 0.34158596
vn -0.87557876 -0.3415859 -0.341586
vn 0.341586 -0.87557864 -0.34158602
vn -0.341586 -0.87557864 -0.34158602
vn -0.34158596 -0.3415859 -0.87557876
vn 0.34158596 -0.3415859 -0.87557876
vn 0.341586 -0.87557864 0.34158596
vn 0.341586 -0.87557864 -0.34158602
vn 0.87557876 -0.3415859 -0.341586
vn 0.87557876 -0.34158596 0.34158593
vn -0.341586 -0.87557864 0.34158596
vn 0.341586 -0.87557864 0.34158596
vn 0.34158596 -0.34158596 0.87557876
vn -0.34158596 -0.34158596 0.87557876
vn 0.34158662 0.8755782 0.34158665
vn -0.34158662 0.8755782 0.34158665
vn -0.34158608 0.34158525 0.875579
vn 0.3415861 0.34158525 0.875579
vn 0.34158662 0.8755782 -0.3415866
vn 0.34158662 0.8755782 0.34158665
vn 0.875579 0.34158525 0.34158614
vn 0.875579 0.3415853 -0.34158608
vn -0.34158662 0.8755782 -0.3415866
vn 0.34158662 0.8755782 -0.3415866
vn 0.3415861 0.3415853 -0.875579
vn -0.3415861 0.3415853 -0.875579
vn -0.34158662 0.8755782 0.34158665
vn -0.34158662 0.8755782 -0.3415866
vn -0.875579 0.3415853 -0.34158608
vn -0.8755789 0.34158525 0.34158614
vn 0.3415861 0.34158525 0.875579
vn 0.34158596 -0.34158596 0.87557876
vn 0.87557876 -0.34158596 0.34158593
vn 0.875579 0.34158525 0.34158614
vn -0.34158596 -0.34158596 0.87557876
vn -0.34158608 0.34158525 0.875579
vn -0.8755789 0.34158525 0.34158614
vn -0.8755787 -0.341586 0.34158596
vn 0.875579 0.3415853 -0.34158608
vn 0.87557876 -0.3415859 -0.341586
vn 0.34158596 -0.3415859 -0.87557876
vn 0.3415861 0.3415853 -0.875579
vn -0.3415861 0.3415853 -0.875579
vn -0.34158596 -0.3415859 -0.87557876
vn -0.87557876 -0.3415859 -0.341586
vn -0.875579 0.3415853 -0.34158608
# 96 vertex normals

vt 0.9961227 0.98627293 0
vt 0.6743772 0.98627317 0
vt 0.6743771 0.6645275 0
vt 0.9961227 0.66452736 0
vt 0.34354186 0.3331226 0
vt 0.6650744 0.3331226 0
vt 0.6650744 0.65465504 0
vt 0.34354186 0.65465504 0
vt 0.99582 0.006125893 0
vt 0.99582 0.32571235 0
vt 0.67428756 0.32571235 0
vt 0.67428756 0.006125893 0
vt 0.9976888 0.3331226 0
vt 0.9976888 0.65465504 0
vt 0.6761563 0.65465504 0
vt 0.6761563 0.3331226 0
vt 0.66509956 0.9836761 0
vt 0.3435668 0.9836761 0
vt 0.3435668 0.6621437 0
vt 0.66509956 0.6621437 0
vt 0.0145976115 0.6546257 0
vt 0.0145976115 0.33309323 0
vt 0.33613008 0.33309323 0
vt 0.33613008 0.6546257 0
vt 0.34203076 0.33239603 0
vt 0.33933228 0.32685894 0
vt 0.66845864 0.32645017 0
vt 0.6710435 0.3319229 0
vt 0.6672317 0.6553929 0
vt 0.67058843 0.66086566 0
vt 0.34279448 0.65613675 0
vt 0.33737645 0.65900314 0
vt 0.996506 0.33161095 0
vt 0.9953307 0.660484 0
vt 0.33773804 0.9844139 0
vt 0.66839963 0.32571235 0
vt 0.66839963 0.0061259004 0
vt 0.6710826 0.6621642 0
vt 0.6712415 0.9837308 0
vt 0.33613008 0.6605136 0
vt 0.014597625 0.6605136 0
vt 1.001649 0.0053880624 0
vt 0.999064 -8.458551E-05 0
vt 0.34165335 0.9893905 0
vt 1.0011775 0.6565686 0
vt 1.0015574 0.327595 0
vt 0.9961227 0.99216455 0
vt 0.6743772 0.9921648 0
vt 0.66839737 0.9862828 0
vt 0.66839737 0.6645369 0
vt 0.6743771 0.65863585 0
vt 0.9961227 0.65863574 0
vt 1.0020143 0.66452736 0
vt 1.0020143 0.98627293 0
vt 0.67428756 0.00023803371 0
vt 0.99582 0.00023803371 0
# 56 texture coords

usemtl Material #25
s 1
f 2/2/1 3/3/2 4/4/3 1/1/4
f 6/6/5 7/7/6 8/8/7 5/5/8
f 10/10/9 11/11/10 12/12/11 9/9/12
f 14/14/13 15/15/14 16/16/15 13/13/16
f 18/18/17 19/19/18 20/20/19 17/17/20
f 22/22/21 23/23/22 24/24/23 21/21/24
f 1/42/25 9/9/26 22/43/27
f 2/44/28 21/35/29 18/18/30
f 3/45/31 17/34/32 14/14/33
f 4/46/34 13/33/35 10/10/36
f 5/25/37 23/23/38 12/26/39
f 6/27/40 11/11/41 16/28/42
f 7/29/43 15/15/44 20/30/45
f 8/31/46 19/19/47 24/32/48
f 2/2/49 1/1/50 22/47/51 21/48/52
f 3/3/53 2/2/54 18/49/55 17/50/56
f 4/4/57 3/3/58 14/51/59 13/52/60
f 1/1/61 4/4/62 10/53/63 9/54/64
f 6/36/65 5/37/66 12/12/67 11/11/68
f 7/7/69 6/6/70 16/16/71 15/15/72
f 8/8/73 7/7/74 20/20/75 19/19/76
f 5/5/77 8/8/78 24/24/79 23/23/80
f 11/11/81 10/10/82 13/13/83 16/16/84
f 9/9/85 12/12/86 23/55/87 22/56/88
f 15/38/89 14/39/90 17/17/91 20/20/92
f 19/40/93 18/41/94 21/21/95 24/24/96
#26 polygons

